<?xml version="1.0" encoding="UTF-8"?>
<!DOCTYPE svg PUBLIC "-//W3C//DTD SVG 1.1//EN" "http://www.w3.org/Graphics/SVG/1.1/DTD/svg11.dtd">
<!-- Creator: CorelDRAW -->
<svg xmlns="http://www.w3.org/2000/svg" xml:space="preserve" width="3.30992in" height="3.30992in" style="shape-rendering:geometricPrecision; text-rendering:geometricPrecision; image-rendering:optimizeQuality; fill-rule:evenodd; clip-rule:evenodd"
viewBox="0 0 0.0991264 0.0991264"
 xmlns:xlink="http://www.w3.org/1999/xlink">
 <defs>
  <style type="text/css">
   <![CDATA[
    .str0 {stroke:#C2C1C1;stroke-width:0.000831949}
    .fil0 {fill:none}
    .fil1 {fill:black}
   ]]>
  </style>
 </defs>
 <g id="Layer_x0020_1">
  <metadata id="CorelCorpID_0Corel-Layer"/>
  <g>
   <path class="fil0 str0" d="M0.0495632 0.000415974c0.0271387,0 0.0491472,0.0220086 0.0491472,0.0491472 0,0.0271387 -0.0220086,0.0491472 -0.0491472,0.0491472 -0.0271387,0 -0.0491472,-0.0220086 -0.0491472,-0.0491472 0,-0.0271387 0.0220086,-0.0491472 0.0491472,-0.0491472z"/>
  </g>
  <path id="iconmonstr-instagram-11.svg" class="fil1" d="M0.0495632 0.032269c0.00563275,0 0.00630116,2.13411e-005 0.00852641,0.000122977 0.00571717,0.000260456 0.00838764,0.00297278 0.00864809,0.00864809 0.000101753,0.00222395 0.00012168,0.00289178 0.00012168,0.00852512 0,0.00563464 -2.13411e-005,0.00630116 -0.00012168,0.00852512 -0.000261753,0.00566989 -0.00292562,0.00838764 -0.00864809,0.00864809 -0.00222596,0.000101635 -0.00289036,0.000122977 -0.00852641,0.000122977 -0.00563275,0 -0.00630116,-2.13411e-005 -0.00852512,-0.000122977 -0.00573108,-0.000261753 -0.00838764,-0.00298681 -0.00864809,-0.0086501 -0.000101635,-0.00222395 -0.000122977,-0.00289036 -0.000122977,-0.00852512 0,-0.00563275 2.26381e-005,-0.00629916 0.000122977,-0.00852512 0.000261753,-0.00567331 0.00292562,-0.00838764 0.00864809,-0.00864809 0.00222596,-0.000100338 0.00289178,-0.000121562 0.00852512,-0.000121562l0 5.89533e-007zm0 -0.00380272c-0.00572967,0 -0.00644666,2.46425e-005 -0.00869726,0.000126278 -0.00766192,0.000351479 -0.0119199,0.00460272 -0.0122714,0.0122714 -0.00010364,0.0022519 -0.000128282,0.00296959 -0.000128282,0.00869926 0,0.00572967 2.46425e-005,0.00644866 0.000126278,0.00869926 0.000351479,0.00766192 0.00460272,0.0119199 0.0122714,0.0122714 0.0022519,0.000101635 0.00296959,0.000126278 0.00869926,0.000126278 0.00572967,0 0.00644866,-2.46425e-005 0.00869926,-0.000126278 0.00765461,-0.000351479 0.0119232,-0.00460272 0.0122694,-0.0122714 0.00010364,-0.0022506 0.000128282,-0.00296959 0.000128282,-0.00869926 0,-0.00572967 -2.46425e-005,-0.00644666 -0.000126278,-0.00869726 -0.000344877,-0.00765461 -0.00460071,-0.0119199 -0.0122694,-0.0122714 -0.0022519,-0.00010364 -0.00297089,-0.000128282 -0.00870056,-0.000128282l-7.07439e-007 0zm0 0.0102634c-0.00598293,0 -0.0108335,0.00485056 -0.0108335,0.0108335 0,0.00598293 0.00485056,0.0108348 0.0108335,0.0108348 0.00598293,0 0.0108335,-0.00485056 0.0108335,-0.0108348 0,-0.00598293 -0.00485056,-0.0108335 -0.0108335,-0.0108335zm0 0.0178656c-0.00388384,0 -0.00703206,-0.00314693 -0.00703206,-0.00703206 0,-0.00388384 0.00314893,-0.00703206 0.00703206,-0.00703206 0.00388313,0 0.00703206,0.00314893 0.00703206,0.00703206 0,0.00388514 -0.00314893,0.00703206 -0.00703206,0.00703206zm0.0112621 -0.0208244c-0.00139931,0 -0.00253358,0.00113426 -0.00253358,0.00253157 0,0.00139743 0.00113426,0.00253169 0.00253358,0.00253169 0.00139743,0 0.00252969,-0.00113426 0.00252969,-0.00253169 0,-0.00139731 -0.00113226,-0.00253157 -0.00252969,-0.00253157z"/>
 </g>
</svg>
