<?xml version="1.0" encoding="UTF-8"?>
<!DOCTYPE svg PUBLIC "-//W3C//DTD SVG 1.1//EN" "http://www.w3.org/Graphics/SVG/1.1/DTD/svg11.dtd">
<!-- Creator: CorelDRAW -->
<svg xmlns="http://www.w3.org/2000/svg" xml:space="preserve" width="3.30992in" height="3.30992in" style="shape-rendering:geometricPrecision; text-rendering:geometricPrecision; image-rendering:optimizeQuality; fill-rule:evenodd; clip-rule:evenodd"
viewBox="0 0 0.0991264 0.0991264"
 xmlns:xlink="http://www.w3.org/1999/xlink">
 <defs>
  <style type="text/css">
   <![CDATA[
    .str0 {stroke:#C2C1C1;stroke-width:0.000831949}
    .fil0 {fill:none}
    .fil1 {fill:black}
   ]]>
  </style>
 </defs>
 <g id="Layer_x0020_1">
  <metadata id="CorelCorpID_0Corel-Layer"/>
  <g>
   <path class="fil0 str0" d="M0.0495632 0.000415974c0.0271387,0 0.0491472,0.0220086 0.0491472,0.0491472 0,0.0271387 -0.0220086,0.0491472 -0.0491472,0.0491472 -0.0271387,0 -0.0491472,-0.0220086 -0.0491472,-0.0491472 0,-0.0271387 0.0220086,-0.0491472 0.0491472,-0.0491472z"/>
  </g>
  <path class="fil1" d="M0.0310239 0.0381514c6.02502e-005,-0.000592716 -0.000170729,-0.00118543 -0.00061276,-0.00158726l-0.00453056 -0.00546485 0 -0.000813673 0.0140839 0 0.0108895 0.0238786 0.00957354 -0.0238786 0.013431 0 0 0.000813673 -0.00387759 0.00371689c-0.000331435,0.000251141 -0.000502282,0.000673128 -0.000431892,0.00108498l0 0.0273241c-7.03902e-005,0.000411848 0.000100456,0.000833835 0.000431892,0.00108498l0.00378728 0.00371689 0 0.000813673 -0.0190566 0 0 -0.000813673 0.00392782 -0.00380732c0.000381781,-0.000381781 0.000381781,-0.000502282 0.000381781,-0.00108486l0 -0.0220804 -0.0109197 0.0277159 -0.00147666 0 -0.0126977 -0.0277159 0 0.0185744c-0.000110478,0.000783489 0.000150685,0.0015671 0.000703195,0.00212963l0.00510323 0.00618809 0 0.000813791 -0.0144657 -1.17907e-007 0 -0.000803533 0.00510311 -0.00619823c0.000542488,-0.000562532 0.000793629,-0.00135616 0.000652966,-0.00212963l0 -0.0214776z"/>
 </g>
</svg>
