<?xml version="1.0" encoding="UTF-8"?>
<!DOCTYPE svg PUBLIC "-//W3C//DTD SVG 1.1//EN" "http://www.w3.org/Graphics/SVG/1.1/DTD/svg11.dtd">
<!-- Creator: CorelDRAW -->
<svg xmlns="http://www.w3.org/2000/svg" xml:space="preserve" width="3.30992in" height="3.30992in" style="shape-rendering:geometricPrecision; text-rendering:geometricPrecision; image-rendering:optimizeQuality; fill-rule:evenodd; clip-rule:evenodd"
viewBox="0 0 0.0991264 0.0991264"
 xmlns:xlink="http://www.w3.org/1999/xlink">
 <defs>
  <style type="text/css">
   <![CDATA[
    .str0 {stroke:#C2C1C1;stroke-width:0.000831949}
    .fil0 {fill:none}
    .fil1 {fill:black}
   ]]>
  </style>
 </defs>
 <g id="Layer_x0020_1">
  <metadata id="CorelCorpID_0Corel-Layer"/>
  <g>
   <path class="fil0 str0" d="M0.0495632 0.000415974c0.0271387,0 0.0491472,0.0220086 0.0491472,0.0491472 0,0.0271387 -0.0220086,0.0491472 -0.0491472,0.0491472 -0.0271387,0 -0.0491472,-0.0220086 -0.0491472,-0.0491472 0,-0.0271387 0.0220086,-0.0491472 0.0491472,-0.0491472z"/>
  </g>
  <path class="fil1" d="M0.0507531 0.024816c-0.0101744,0 -0.0202297,0.00678305 -0.0202297,0.0177606 0,0.00698125 0.00392688,0.0109479 0.00630682,0.0109479 0.000981808,0 0.00154705,-0.00273696 0.00154705,-0.00351043 0,-0.000922265 -0.00235023,-0.00288576 -0.00235023,-0.00672339 0,-0.00797296 0.00606889,-0.0136254 0.0139229,-0.0136254 0.00675322,0 0.0117512,0.00383774 0.0117512,0.0108883 0,0.00526571 -0.0021123,0.0151426 -0.00895477,0.0151426 -0.0024692,0 -0.00458138,-0.00178499 -0.00458138,-0.00434344 0,-0.00374849 0.002618,-0.00737788 0.002618,-0.0112453 0,-0.0065648 -0.00931167,-0.00537477 -0.00931167,0.00255845 0,0.00166602 0.000208223,0.00351043 0.000951977,0.00502765 -0.00136854,0.00589049 -0.00416493,0.0146666 -0.00416493,0.0207355 0,0.00187424 0.000267766,0.00371877 0.000446276,0.00559302 0.000337095,0.000376829 0.000168488,0.000337213 0.000684212,0.000148798 0.00499794,-0.00684247 0.00481943,-0.00818118 0.00708041,-0.0171358 0.00121974,0.0023204 0.00437315,0.00356986 0.00687218,0.00356986 0.0105314,0 0.0152616,-0.0102636 0.0152616,-0.0195158 0,-0.00984708 -0.00850837,-0.0162731 -0.0178499,-0.0162731z"/>
 </g>
</svg>
