<?xml version="1.0" encoding="UTF-8"?>
<!DOCTYPE svg PUBLIC "-//W3C//DTD SVG 1.1//EN" "http://www.w3.org/Graphics/SVG/1.1/DTD/svg11.dtd">
<!-- Creator: CorelDRAW -->
<svg xmlns="http://www.w3.org/2000/svg" xml:space="preserve" width="3.30992in" height="3.30992in" style="shape-rendering:geometricPrecision; text-rendering:geometricPrecision; image-rendering:optimizeQuality; fill-rule:evenodd; clip-rule:evenodd"
viewBox="0 0 0.0991264 0.0991264"
 xmlns:xlink="http://www.w3.org/1999/xlink">
 <defs>
  <style type="text/css">
   <![CDATA[
    .str0 {stroke:#C2C1C1;stroke-width:0.000831949}
    .fil0 {fill:none}
    .fil1 {fill:black}
   ]]>
  </style>
 </defs>
 <g id="Layer_x0020_1">
  <metadata id="CorelCorpID_0Corel-Layer"/>
  <g>
   <path class="fil0 str0" d="M0.0495632 0.000415974c0.0271387,0 0.0491472,0.0220086 0.0491472,0.0491472 0,0.0271387 -0.0220086,0.0491472 -0.0491472,0.0491472 -0.0271387,0 -0.0491472,-0.0220086 -0.0491472,-0.0491472 0,-0.0271387 0.0220086,-0.0491472 0.0491472,-0.0491472z"/>
  </g>
  <path class="fil1" d="M0.050715 0.0232973c0.00287209,-4.38612e-005 0.00572259,-2.22843e-005 0.0085731,-4.38612e-005 0.000175681,0.00335432 0.00138139,0.00677491 0.00383656,0.00914236 0.00245529,0.00243371 0.00591985,0.00355158 0.00929575,0.00392452l0 0.0088358c-0.00315718,-0.000109417 -0.00633583,-0.000767336 -0.00920874,-0.00212633 -0.00124957,-0.000570078 -0.00241131,-0.00129355 -0.00355146,-0.00203931 -2.15769e-005,0.00640209 2.1459e-005,0.0128042 -4.39791e-005,0.0191839 -0.000175681,0.00306934 -0.00118414,0.00611699 -0.00295993,0.00863854 -0.00287209,0.0042095 -0.0078488,0.00694988 -0.0129575,0.00703772 -0.00313561,0.000175681 -0.00627027,-0.000679495 -0.0089451,-0.00225803 -0.00442916,-0.00260939 -0.00754236,-0.00738814 -0.0080022,-0.0125192 -4.39791e-005,-0.0010963 -6.5556e-005,-0.00219247 -2.15769e-005,-0.00326648 0.000394397,-0.00416552 0.00245529,-0.0081563 0.00565633,-0.0108742 0.0036393,-0.00315718 0.00872556,-0.00467028 0.0134836,-0.00377124 4.39791e-005,0.00324502 -8.78404e-005,0.00648993 -8.78404e-005,0.00973495 -0.00217019,-0.000701898 -0.00471402,-0.00050464 -0.00662081,0.000811197 -0.00138128,0.000899037 -0.00243371,0.00228043 -0.00298139,0.00383656 -0.000460779,0.00111787 -0.000328959,0.00234599 -0.000306675,0.00353 0.000526217,0.00359556 0.00398996,0.00662092 0.00767324,0.00629279 0.00245529,-2.15769e-005 0.00480115,-0.00144683 0.00607313,-0.00353 0.0004168,-0.000723475 0.000876635,-0.00146923 0.000899037,-0.00232441 0.00021966,-0.0039244 0.00013182,-0.00782734 0.000153279,-0.0117517 2.15769e-005,-0.0088358 -2.1459e-005,-0.0176492 4.39791e-005,-0.0264626l-8.25346e-007 -9.43252e-007z"/>
 </g>
</svg>
