<?xml version="1.0" encoding="UTF-8"?>
<!DOCTYPE svg PUBLIC "-//W3C//DTD SVG 1.1//EN" "http://www.w3.org/Graphics/SVG/1.1/DTD/svg11.dtd">
<!-- Creator: CorelDRAW -->
<svg xmlns="http://www.w3.org/2000/svg" xml:space="preserve" width="3.30992in" height="3.30992in" style="shape-rendering:geometricPrecision; text-rendering:geometricPrecision; image-rendering:optimizeQuality; fill-rule:evenodd; clip-rule:evenodd"
viewBox="0 0 0.0991264 0.0991264"
 xmlns:xlink="http://www.w3.org/1999/xlink">
 <defs>
  <style type="text/css">
   <![CDATA[
    .str0 {stroke:#C2C1C1;stroke-width:0.000831949}
    .fil0 {fill:none}
    .fil1 {fill:black}
   ]]>
  </style>
 </defs>
 <g id="Layer_x0020_1">
  <metadata id="CorelCorpID_0Corel-Layer"/>
  <g>
   <path class="fil0 str0" d="M0.0495632 0.000415974c0.0271387,0 0.0491472,0.0220086 0.0491472,0.0491472 0,0.0271387 -0.0220086,0.0491472 -0.0491472,0.0491472 -0.0271387,0 -0.0491472,-0.0220086 -0.0491472,-0.0491472 0,-0.0271387 0.0220086,-0.0491472 0.0491472,-0.0491472z"/>
  </g>
  <path class="fil1" d="M0.0670016 0.040621c2.79439e-005,0.000390035 2.79439e-005,0.00078007 2.79439e-005,0.0011701 0,0.0118948 -0.00905345,0.0256005 -0.0256006,0.0256005 -0.00509781,0 -0.00983341,-0.00147643 -0.013817,-0.00403924 0.0007243,8.35957e-005 0.00142066,0.000111422 0.00217278,0.000111422 0.00420643,0 0.0080786,-0.00142066 0.0111707,-0.00384423 -0.00395565,-8.35957e-005 -0.00727071,-0.00267424 -0.00841287,-0.00623997 0.000557226,8.34778e-005 0.00111433,0.000139248 0.00169939,0.000139248 0.000807778,0 0.00161567,-0.000111422 0.0023678,-0.000306321 -0.00412284,-0.00083584 -0.00721506,-0.00445722 -0.00721506,-0.00883073l0 -0.000111422c0.00119781,0.000668648 0.00259076,0.00108639 0.00406707,0.00114216 -0.00242357,-0.00161579 -0.0040113,-0.00437363 -0.0040113,-0.00749355 0,-0.00167144 0.000445687,-0.00320352 0.00122564,-0.0045407 0.00442928,0.00546002 0.0110871,0.00902563 0.0185527,0.00941566 -0.000139248,-0.00066853 -0.000222843,-0.00136489 -0.000222843,-0.00206136 0,-0.00495856 0.00401142,-0.0089978 0.0089978,-0.0089978 0.00259064,0 0.00493062,0.00108639 0.00657423,0.00284143 0.00203342,-0.000390035 0.00398347,-0.00114216 0.00571069,-0.0021729 -0.000668648,0.0020893 -0.0020893,0.00384434 -0.00395576,0.00495856 0.00181081,-0.0001949 0.00356573,-0.000696474 0.0051814,-0.00139283 -0.00122552,0.00178275 -0.00275772,0.00337059 -0.00451276,0.00465212l0 -1.17907e-007z"/>
 </g>
</svg>
